<svg width="16" height="20" viewBox="0 0 16 20" fill="none" xmlns="http://www.w3.org/2000/svg">
<path fill-rule="evenodd" clip-rule="evenodd" d="M5.2458e-05 0.999993C5.2458e-05 0.447708 0.447768 -6.91414e-06 1.00005 -6.91414e-06H15.0001C15.5523 -6.91414e-06 16.0001 0.447709 16.0001 0.999994V18.5C15.1717 18.5 14.5001 19.1715 14.5001 19.9999H13.5001C13.5 19.1715 12.8284 18.5 12.0001 18.5C11.1717 18.5 10.5001 19.1715 10.5001 19.9999H9.50005C9.5 19.1715 8.82845 18.5 8.00005 18.5C7.17166 18.5 6.50011 19.1715 6.50005 19.9999H5.50005C5.5 19.1715 4.82845 18.5 4.00005 18.5C3.17166 18.5 2.50011 19.1715 2.50005 19.9999H1.50005C1.5 19.1715 0.828447 18.5 5.2458e-05 18.5V0.999993ZM9.41636 11.7884C8.55362 12.3443 7.4704 12.5936 6.32966 12.3827C4.52749 12.0472 3.08958 10.5326 2.85952 8.71136C2.49525 5.82607 4.94927 3.42006 7.85384 3.88017C9.65601 4.16774 11.1035 5.64394 11.4007 7.43646C11.5828 8.5484 11.324 9.57407 10.7872 10.4272L12.8961 12.5265C13.2699 12.9003 13.2699 13.5138 12.8961 13.8876C12.5126 14.2711 11.8991 14.2711 11.5253 13.8972L9.41636 11.7884ZM4.70593 8.05875C4.70593 6.75993 5.76005 5.70581 7.05887 5.70581C8.3577 5.70581 9.41182 6.75993 9.41182 8.05875C9.41182 9.35758 8.3577 10.4117 7.05887 10.4117C5.76005 10.4117 4.70593 9.35758 4.70593 8.05875Z" fill="white"/>
</svg>
